<svg xmlns="http://www.w3.org/2000/svg" width="46.806" height="47.845" viewBox="0 0 46.806 47.845"><defs><style>.a{fill:none;stroke:#1eaa8c;stroke-linecap:round;stroke-linejoin:round;stroke-width:3px;}</style></defs><g transform="translate(-5944.408 4686.459)"><g transform="translate(5945.908 -4684.959)"><path class="a" d="M5971.853-4653.256l9.316,9.547a3.5,3.5,0,0,0,5.032,0,3.7,3.7,0,0,0,0-5.155l-9.317-9.551" transform="translate(-5943.44 4687.484)"/><path class="a" d="M5982.441-4666.239a18.5,18.5,0,0,1-18.268,18.72,18.5,18.5,0,0,1-18.266-18.72,18.5,18.5,0,0,1,18.266-18.72A18.5,18.5,0,0,1,5982.441-4666.239Z" transform="translate(-5945.908 4684.959)"/></g></g></svg>